<svg xmlns:ev="http://www.w3.org/2001/xml-events" width="1468" viewBox="0 0 1468 1211" xmlns="http://www.w3.org/2000/svg" xmlns:xlink="http://www.w3.org/1999/xlink" height="1211"><style type="text/css"><![CDATA[
.st3 {fill:#0e7c67;font-family:Arial;font-size:10pt}
.st1 {fill:#1f6391;font-family:Arial;font-size:10pt}
.st2 {text-decoration:underline}
]]></style><defs/><g transform="translate(5,5)" id="page1"><rect width="1458" fill="#fdfdfd" x="0" stroke="#808080" y="0" height="1201"/><g transform="translate(504,322)" id="shape1"><path fill="none" d="M0,8L0,180L-225,180L-225,287.1" stroke="#2d85c1"/><path fill="none" stroke-width="1" d="M-4,0L0,8L4,0M0,8L0,0" stroke="#2d85c1" stroke-linecap="round" stroke-linejoin="round"/></g><g transform="translate(73.38,517)" id="table2"><g><path fill="#e8eff8" d="M0,0L205.6,0L205.6,30L0,30L0,0z" stroke="#83b3e3"/><text class="st1"><tspan x="65" y="19">COMMANDE</tspan></text></g><g><path fill="#ffffff" d="M0,30L205.6,30L205.6,67.3L0,67.3L0,30z" stroke="#a0a0a4"/><text class="st1"><tspan x="65" class="st2" y="49">idCommande</tspan></text></g><g><path fill="#ffffff" d="M0,67.3L205.6,67.3L205.6,97.3L0,97.3L0,67.3z" stroke="#a0a0a4"/><text class="st1"><tspan x="58" y="86.3">dateCommande</tspan></text></g><g><path fill="#ffffff" d="M0,97.3L205.6,97.3L205.6,127.3L0,127.3L0,97.3z" stroke="#a0a0a4"/><text class="st1"><tspan x="78" y="116.3">PrixTotal</tspan></text></g><g><path fill="#ffffff" d="M0,127.3L205.6,127.3L205.6,154.3L0,154.3L0,127.3z" stroke="#a0a0a4"/><text class="st1"/></g><g><path fill="#ffffff" d="M0,154.3L205.6,154.3L205.6,184.3L0,184.3L0,154.3z" stroke="#a0a0a4"/><text class="st1"/></g></g><g transform="translate(482,519.13)" id="table3"><g><path fill="#e8eff8" d="M0,0L205.6,0L205.6,30L0,30L0,0z" stroke="#83b3e3"/><text class="st1"><tspan x="68" y="19">BOUTEILLE</tspan></text></g><g><path fill="#ffffff" d="M0,30L205.6,30L205.6,60L0,60L0,30z" stroke="#a0a0a4"/><text class="st1"><tspan x="73" class="st2" y="49">idBouteille</tspan></text></g><g><path fill="#ffffff" d="M0,60L205.6,60L205.6,90L0,90L0,60z" stroke="#83b3e3"/><text class="st1"><tspan x="71" y="79">prixUnitaire</tspan></text></g><g><path fill="#ffffff" d="M0,90L205.6,90L205.6,120L0,120L0,90z" stroke="#a0a0a4"/><text class="st1"><tspan x="66" y="109">nomBouteille</tspan></text></g><g><path fill="#ffffff" d="M0,120L205.6,120L205.6,150L0,150L0,120z" stroke="#a0a0a4"/><text class="st1"/></g><g><path fill="#ffffff" d="M0,150L205.6,150L205.6,180L0,180L0,150z" stroke="#a0a0a4"/><text class="st1"/></g></g><g transform="translate(468,317.5)" id="shape4"><text class="st1"><tspan x="6.5" y="18.5">N</tspan></text></g><g transform="translate(435,322)" id="shape5"><text class="st1"><tspan x="6.5" y="14">0</tspan></text></g><g transform="translate(231,490)" id="shape6"><text class="st1"><tspan x="6.5" y="14">1</tspan></text></g><g transform="translate(259,490)" id="shape7"><text class="st1"><tspan x="6.5" y="14">1</tspan></text></g><g transform="translate(285,554)" id="shape8"><text class="st1"><tspan x="6.5" y="14">1</tspan></text></g><g transform="translate(285,582)" id="shape9"><text class="st1"><tspan x="6.5" y="14">N</tspan></text></g><g transform="translate(452,582)" id="shape10"><text class="st1"><tspan x="6.5" y="14">N</tspan></text></g><g transform="translate(453,554)" id="shape11"><text class="st1"><tspan x="6.5" y="14">0</tspan></text></g><g transform="translate(683.63,58.9)" id="table12"><g><path fill="#e8eff8" d="M0,0L205.6,0L205.6,30L0,30L0,0z" stroke="#83b3e3"/><text class="st1"><tspan x="86" y="19">CAVE</tspan></text></g><g><path fill="#ffffff" d="M0,30L205.6,30L205.6,60L0,60L0,30z" stroke="#a0a0a4"/><text class="st1"><tspan x="84" class="st2" y="49">idCave</tspan></text></g><g><path fill="#ffffff" d="M0,60L205.6,60L205.6,90L0,90L0,60z" stroke="#a0a0a4"/><text class="st1"><tspan x="77" y="79">nomCave</tspan></text></g><g><path fill="#ffffff" d="M0,90L205.6,90L205.6,120L0,120L0,90z" stroke="#a0a0a4"/><text class="st1"/></g><g><path fill="#ffffff" d="M0,120L205.6,120L205.6,150L0,150L0,120z" stroke="#a0a0a4"/><text class="st1"/></g><g><path fill="#ffffff" d="M0,150L205.6,150L205.6,180L0,180L0,150z" stroke="#a0a0a4"/><text class="st1"/></g></g><g transform="translate(482,829)" id="table13"><g><path fill="#e8eff8" d="M0,0L205.6,0L205.6,30L0,30L0,0z" stroke="#83b3e3"/><text class="st1"><tspan x="77" y="19">FORMAT</tspan></text></g><g><path fill="#ffffff" d="M0,30L205.6,30L205.6,60L0,60L0,30z" stroke="#a0a0a4"/><text class="st1"><tspan x="78" class="st2" y="49">idFormat</tspan></text></g><g><path fill="#ffffff" d="M0,60L205.6,60L205.6,90L0,90L0,60z" stroke="#a0a0a4"/><text class="st1"><tspan x="70" y="79">nomFormat</tspan></text></g><g><path fill="#ffffff" d="M0,90L205.6,90L205.6,120L0,120L0,90z" stroke="#a0a0a4"/><text class="st1"><tspan x="80" y="109">quantité</tspan></text></g><g><path fill="#ffffff" d="M0,120L205.6,120L205.6,150L0,150L0,120z" stroke="#a0a0a4"/><text class="st1"/></g><g><path fill="#ffffff" d="M0,150L205.6,150L205.6,180L0,180L0,150z" stroke="#a0a0a4"/><text class="st1"/></g></g><g transform="translate(581,703)" id="shape14"><path fill="none" d="M0,8L0,52L7,52" stroke="#2d85c1"/><path fill="none" stroke-width="1" d="M-4,0L0,8L4,0M0,8L0,0" stroke="#2d85c1" stroke-linecap="round" stroke-linejoin="round"/></g><g transform="translate(588,828)" id="shape15"><path fill="none" d="M0,-8L0,-73" stroke="#2d85c1"/><path fill="none" stroke-width="1" d="M4,0L0,-8L-4,0M0,-8L0,0" stroke="#2d85c1" stroke-linecap="round" stroke-linejoin="round"/></g><g transform="translate(594,704)" id="shape16"><text class="st1"><tspan x="6.5" y="14">1</tspan></text></g><g transform="translate(594,804)" id="shape17"><text class="st1"><tspan x="6.5" y="14">0</tspan></text></g><g transform="translate(615,704)" id="shape18"><text class="st1"><tspan x="6.5" y="14">N</tspan></text></g><g transform="translate(615,804)" id="shape19"><text class="st1"><tspan x="6.5" y="14">N</tspan></text></g><g transform="translate(1036.38,58.9)" id="table20"><g><path fill="#e8eff8" d="M0,0L205.6,0L205.6,30L0,30L0,0z" stroke="#83b3e3"/><text class="st1"><tspan x="86" y="19">VILLE</tspan></text></g><g><path fill="#ffffff" d="M0,30L205.6,30L205.6,60L0,60L0,30z" stroke="#83b3e3"/><text class="st1"><tspan x="86" class="st2" y="49">idVille</tspan></text></g><g><path fill="#ffffff" d="M0,60L205.6,60L205.6,90L0,90L0,60z" stroke="#83b3e3"/><text class="st1"><tspan x="78" y="79">nomVille</tspan></text></g><g><path fill="#ffffff" d="M0,90L205.6,90L205.6,120L0,120L0,90z" stroke="#83b3e3"/><text class="st1"><tspan x="84" y="109">cpVille</tspan></text></g><g><path fill="#ffffff" d="M0,120L205.6,120L205.6,150L0,150L0,120z" stroke="#a0a0a4"/><text class="st1"/></g><g><path fill="#ffffff" d="M0,150L205.6,150L205.6,180L0,180L0,150z" stroke="#a0a0a4"/><text class="st1"/></g></g><g transform="translate(874,521.26)" id="table21"><g><path fill="#e8eff8" d="M0,0L200.9,0L200.9,30L0,30L0,0z" stroke="#83b3e3"/><text class="st1"><tspan x="90" y="19">VIN</tspan></text></g><g><path fill="#ffffff" d="M0,30L200.9,30L200.9,60L0,60L0,30z" stroke="#83b3e3"/><text class="st1"><tspan x="86" class="st2" y="49">idVin</tspan></text></g><g><path fill="#ffffff" d="M0,60L200.9,60L200.9,90L0,90L0,60z" stroke="#83b3e3"/><text class="st1"><tspan x="73" y="79">millesime</tspan></text></g><g><path fill="#ffffff" d="M0,90L200.9,90L200.9,120L0,120L0,90z" stroke="#83b3e3"/><text class="st1"><tspan x="63" y="109">degresAlcool</tspan></text></g><g><path fill="#ffffff" d="M0,120L200.9,120L200.9,150L0,150L0,120z" stroke="#a0a0a4"/><text class="st1"/></g><g><path fill="#ffffff" d="M0,150L200.9,150L200.9,180L0,180L0,150z" stroke="#a0a0a4"/><text class="st1"/></g></g><g transform="translate(860,983)" id="table22"><g><path fill="#e8eff8" d="M0,0L205.6,0L205.6,30L0,30L0,0z" stroke="#83b3e3"/><text class="st1"><tspan x="72" y="19">COULEUR</tspan></text></g><g><path fill="#ffffff" d="M0,30L205.6,30L205.6,60L0,60L0,30z" stroke="#a0a0a4"/><text class="st1"><tspan x="76" class="st2" y="49">idCouleur</tspan></text></g><g><path fill="#ffffff" d="M0,60L205.6,60L205.6,90L0,90L0,60z" stroke="#a0a0a4"/><text class="st1"><tspan x="69" y="79">nomCouleur</tspan></text></g><g><path fill="#ffffff" d="M0,90L205.6,90L205.6,120L0,120L0,90z" stroke="#a0a0a4"/><text class="st1"/></g><g><path fill="#ffffff" d="M0,120L205.6,120L205.6,150L0,150L0,120z" stroke="#a0a0a4"/><text class="st1"/></g><g><path fill="#ffffff" d="M0,150L205.6,150L205.6,180L0,180L0,150z" stroke="#a0a0a4"/><text class="st1"/></g></g><g transform="translate(1192.38,300)" id="table23"><g><path fill="#e8eff8" d="M0,0L205.6,0L205.6,30L0,30L0,0z" stroke="#83b3e3"/><text class="st1"><tspan x="73" y="19">DOMAINE</tspan></text></g><g><path fill="#ffffff" d="M0,30L205.6,30L205.6,60L0,60L0,30z" stroke="#83b3e3"/><text class="st1"><tspan x="73" class="st2" y="49">idDomaine</tspan></text></g><g><path fill="#ffffff" d="M0,60L205.6,60L205.6,90L0,90L0,60z" stroke="#83b3e3"/><text class="st1"><tspan x="65" y="79">nomDomaine</tspan></text></g><g><path fill="#ffffff" d="M0,90L205.6,90L205.6,120L0,120L0,90z" stroke="#83b3e3"/><text class="st1"/></g><g><path fill="#ffffff" d="M0,120L205.6,120L205.6,150L0,150L0,120z" stroke="#83b3e3"/><text class="st1"/></g><g><path fill="#ffffff" d="M0,150L205.6,150L205.6,180L0,180L0,150z" stroke="#83b3e3"/><text class="st1"/></g></g><g transform="translate(1186,851)" id="table24"><g><path fill="#e8eff8" d="M0,0L205.6,0L205.6,30L0,30L0,0z" stroke="#83b3e3"/><text class="st1"><tspan x="76" y="19">CEPAGE</tspan></text></g><g><path fill="#ffffff" d="M0,30L205.6,30L205.6,60L0,60L0,30z" stroke="#a0a0a4"/><text class="st1"><tspan x="76" class="st2" y="49">idCepage</tspan></text></g><g><path fill="#ffffff" d="M0,60L205.6,60L205.6,90L0,90L0,60z" stroke="#a0a0a4"/><text class="st1"><tspan x="69" y="79">nomCepage</tspan></text></g><g><path fill="#ffffff" d="M0,90L205.6,90L205.6,120L0,120L0,90z" stroke="#a0a0a4"/><text class="st1"/></g><g><path fill="#ffffff" d="M0,120L205.6,120L205.6,150L0,150L0,120z" stroke="#a0a0a4"/><text class="st1"/></g><g><path fill="#ffffff" d="M0,150L205.6,150L205.6,180L0,180L0,150z" stroke="#a0a0a4"/><text class="st1"/></g></g><g transform="translate(1034,149)" id="shape25"><path fill="none" d="M-8,0L-144.8,0" stroke="#2d85c1"/><path fill="none" stroke-width="1" d="M0,-4L-8,0L0,4M-8,0L0,0" stroke="#2d85c1" stroke-linecap="round" stroke-linejoin="round"/></g><g transform="translate(966,519)" id="shape26"><path fill="none" d="M0,-8L0,-125L-233.2,-125L-233.2,90.1L-278.4,90.1" stroke="#2d85c1"/><path fill="none" stroke-width="1" d="M4,0L0,-8L-4,0M0,-8L0,0" stroke="#2d85c1" stroke-linecap="round" stroke-linejoin="round"/></g><g transform="translate(786.44,238.9)" id="shape27"><path fill="none" d="M0,8L0,72L179.6,72L179.6,155.1" stroke="#2d85c1"/><path fill="none" stroke-width="1" d="M-4,0L0,8L4,0M0,8L0,0" stroke="#2d85c1" stroke-linecap="round" stroke-linejoin="round"/></g><g transform="translate(966,984)" id="shape28"><path fill="none" d="M0,-8L0,-280" stroke="#2d85c1"/><path fill="none" stroke-width="1" d="M4,0L0,-8L-4,0M0,-8L0,0" stroke="#2d85c1" stroke-linecap="round" stroke-linejoin="round"/></g><g transform="translate(1296,481)" id="shape29"><path fill="none" d="M0,8L0,30L-209,30" stroke="#2d85c1"/><path fill="none" stroke-width="1" d="M-4,0L0,8L4,0M0,8L0,0" stroke="#2d85c1" stroke-linecap="round" stroke-linejoin="round"/></g><g transform="translate(1076,610)" id="shape30"><path fill="none" d="M8,0L11,0L11,-99" stroke="#2d85c1"/><path fill="none" stroke-width="1" d="M0,4L8,0L0,-4M8,0L0,0" stroke="#2d85c1" stroke-linecap="round" stroke-linejoin="round"/></g><g transform="translate(1289,849)" id="shape31"><path fill="none" d="M0,-8L0,-43.5L-232,-43.5L-232,-145" stroke="#2d85c1"/><path fill="none" stroke-width="1" d="M4,0L0,-8L-4,0M0,-8L0,0" stroke="#2d85c1" stroke-linecap="round" stroke-linejoin="round"/></g><g transform="translate(401.5,39)" id="table32"><g><path fill="#e8eff8" d="M0,0L212.5,0L212.5,40L0,40L0,0z" stroke="#83b3e3"/><text class="st1"><tspan x="85" y="24">CLIENT</tspan></text></g><g><path fill="#ffffff" d="M0,40L212.5,40L212.5,80L0,80L0,40z" stroke="#83b3e3"/><text class="st1"><tspan x="85" class="st2" y="64">idClient</tspan></text></g><g><path fill="#ffffff" d="M0,80L212.5,80L212.5,120L0,120L0,80z" stroke="#a0a0a4"/><text class="st1"><tspan x="78" y="104">nomClient</tspan></text></g><g><path fill="#ffffff" d="M0,120L212.5,120L212.5,160L0,160L0,120z" stroke="#a0a0a4"/><text class="st1"><tspan x="69" y="144">prénomClient</tspan></text></g><g><path fill="#ffffff" d="M0,160L212.5,160L212.5,200L0,200L0,160z" stroke="#a0a0a4"/><text class="st1"><tspan x="66" y="184">AdresseClient</tspan></text></g><g><path fill="#ffffff" d="M0,200L212.5,200L212.5,240L0,240L0,200z" stroke="#a0a0a4"/><text class="st1"><tspan x="79" y="224">telephone</tspan></text></g><g><path fill="#ffffff" d="M0,240L212.5,240L212.5,280L0,280L0,240z" stroke="#7eccb6"/><text class="st3"><tspan x="91" y="264">eMail</tspan></text></g></g><g transform="translate(893,85)" id="shape33"><text class="st1"><tspan x="6.5" y="14">1</tspan></text></g><g transform="translate(893,119)" id="shape34"><text class="st1"><tspan x="6.5" y="14">1</tspan></text></g><g transform="translate(1014,85)" id="shape35"><text class="st1"><tspan x="6.5" y="14">0</tspan></text></g><g transform="translate(1012,119)" id="shape36"><text class="st1"><tspan x="6.5" y="14">N</tspan></text></g><g transform="translate(842,251)" id="shape37"><text class="st1"><tspan x="6.5" y="9">N</tspan></text></g><g transform="translate(825,246)" id="shape38"><text class="st1"><tspan x="6.5" y="14">0</tspan></text></g><g transform="translate(978,497)" id="shape39"><text class="st1"><tspan x="6.5" y="14">0</tspan></text></g><g transform="translate(995,502)" id="shape40"><text class="st1"><tspan x="6.5" y="9">N</tspan></text></g><g transform="translate(1241,124)" id="shape41"><text class="st1"><tspan x="6.5" y="9">N</tspan></text></g><g transform="translate(1241,85)" id="shape42"><text class="st1"><tspan x="6.5" y="14">0</tspan></text></g><g transform="translate(978,960)" id="shape43"><text class="st1"><tspan x="6.5" y="14">0</tspan></text></g><g transform="translate(993,965)" id="shape44"><text class="st1"><tspan x="6.5" y="9">N</tspan></text></g><g transform="translate(1315,275)" id="shape45"><text class="st1"><tspan x="6.5" y="14">N</tspan></text></g><g transform="translate(1299,275)" id="shape46"><text class="st1"><tspan x="6.5" y="13.5">1</tspan></text></g><g transform="translate(1299,492)" id="shape47"><text class="st1"><tspan x="6.5" y="14">1</tspan></text></g><g transform="translate(1315,492)" id="shape48"><text class="st1"><tspan x="6.5" y="14">N</tspan></text></g><g transform="translate(1091.57,605.26)" id="shape49"><text class="st1"><tspan x="6.5" y="14">N</tspan></text></g><g transform="translate(1091.57,582)" id="shape50"><text class="st1"><tspan x="6.5" y="14">1</tspan></text></g><g transform="translate(1307,829)" id="shape51"><text class="st1"><tspan x="6.5" y="14">1</tspan></text></g><g transform="translate(1327,829)" id="shape52"><text class="st1"><tspan x="6.5" y="14">N</tspan></text></g><g transform="translate(1054.91,705.64)" id="shape53"><text class="st1"><tspan x="6.5" y="14">1</tspan></text></g><g transform="translate(1072,705.64)" id="shape54"><text class="st1"><tspan x="6.5" y="14">1</tspan></text></g><g transform="translate(978,704)" id="shape55"><text class="st1"><tspan x="6.5" y="14">1</tspan></text></g><g transform="translate(997,704)" id="shape56"><text class="st1"><tspan x="6.5" y="14">1</tspan></text></g><g transform="translate(697.86,554)" id="shape57"><text class="st1"><tspan x="6.5" y="14">1</tspan></text></g><g transform="translate(697.86,582)" id="shape58"><text class="st1"><tspan x="6.5" y="14">1</tspan></text></g><g transform="translate(1242,152)" id="shape59"><path fill="none" d="M8,0L50,0L50,91" stroke="#2d85c1"/><path fill="none" stroke-width="1" d="M0,4L8,0L0,-4M8,0L0,0" stroke="#2d85c1" stroke-linecap="round" stroke-linejoin="round"/></g><g transform="translate(1292,300)" id="shape60"><path fill="none" d="M0,-8L0,-57" stroke="#2d85c1"/><path fill="none" stroke-width="1" d="M4,0L0,-8L-4,0M0,-8L0,0" stroke="#2d85c1" stroke-linecap="round" stroke-linejoin="round"/></g><g transform="translate(941,152.5)" id="shape61"><text class="st1"><tspan x="15" y="13.5">situé</tspan></text></g><g transform="translate(329.5,464)" id="shape62"><text class="st1"><tspan x="16" y="23">commande</tspan></text></g><g transform="translate(874,383)" id="shape63"><text class="st1"><tspan x="27" y="21">contient</tspan></text></g><g transform="translate(344,582)" id="shape64"><text class="st1"><tspan x="7" y="18">concerne</tspan></text></g><g transform="translate(588,755)" id="shape65"><text class="st1"><tspan x="15" y="14.5">posséde</tspan></text></g><g transform="translate(860,812)" id="shape66"><text class="st1"><tspan x="14" y="22.5">est caracterisé</tspan></text></g><g transform="translate(1119,775)" id="shape67"><text class="st1"><tspan x="32" y="18.5">categorise</tspan></text></g><g transform="translate(1138,502)" id="shape68"><text class="st1"><tspan x="30" y="23">provient</tspan></text></g><g transform="translate(1299,185.9)" id="shape69"><text class="st1"><tspan x="4.4" y="19.1">localise</tspan></text></g><g transform="translate(38.5,46)" id="table70"><g><path fill="#e8eff8" d="M0,0L212.5,0L212.5,40L0,40L0,0z" stroke="#83b3e3"/><text class="st1"><tspan x="87" y="24">LOGIN</tspan></text></g><g><path fill="#ffffff" d="M0,40L212.5,40L212.5,80L0,80L0,40z" stroke="#a0a0a4"/><text class="st1"><tspan x="91" class="st2" y="64">eMail</tspan></text></g><g><path fill="#ffffff" d="M0,80L212.5,80L212.5,120L0,120L0,80z" stroke="#a0a0a4"/><text class="st1"><tspan x="77" y="104">passWord</tspan></text></g><g><path fill="#ffffff" d="M0,120L212.5,120L212.5,160L0,160L0,120z" stroke="#a0a0a4"/><text class="st1"><tspan x="80" y="144">uuid_field</tspan></text></g><g><path fill="#ffffff" d="M0,160L212.5,160L212.5,200L0,200L0,160z" stroke="#a0a0a4"/><text class="st1"/></g><g><path fill="#ffffff" d="M0,200L212.5,200L212.5,240L0,240L0,200z" stroke="#a0a0a4"/><text class="st1"/></g><g><path fill="#ffffff" d="M0,240L212.5,240L212.5,280L0,280L0,240z" stroke="#a0a0a4"/><text class="st1"/></g></g><g transform="translate(482,609.13)" id="shape71"><path fill="none" d="M-8,0L-41,0" stroke="#2d85c1"/><path fill="none" stroke-width="1" d="M0,-4L-8,0L0,4M-8,0L0,0" stroke="#2d85c1" stroke-linecap="round" stroke-linejoin="round"/></g><g transform="translate(279,609.13)" id="shape72"><path fill="none" d="M8,0L168.8,0" stroke="#2d85c1"/><path fill="none" stroke-width="1" d="M0,4L8,0L0,-4M8,0L0,0" stroke="#2d85c1" stroke-linecap="round" stroke-linejoin="round"/></g><g transform="translate(379,138.9)" id="shape73"><text class="st1"><tspan x="6.5" y="14">1</tspan></text></g><g transform="translate(379,169)" id="shape74"><text class="st1"><tspan x="6.5" y="14">1</tspan></text></g><g transform="translate(257,138.9)" id="shape75"><text class="st1"><tspan x="6.5" y="14">0</tspan></text></g><g transform="translate(257,160)" id="shape76"><text class="st1"><tspan x="6.5" y="18.5">N</tspan></text></g><g transform="translate(252,194)" id="shape77"><path fill="none" d="M8,0L148,0" stroke="#2d85c1"/><path fill="none" stroke-width="1" d="M0,4L8,0L0,-4M8,0L0,0" stroke="#2d85c1" stroke-linecap="round" stroke-linejoin="round"/></g><g transform="translate(278.75,190.1)" id="shape78"><text class="st1"><tspan x="15" y="23">est attribué</tspan></text></g></g></svg>